G04 #@! TF.GenerationSoftware,KiCad,Pcbnew,5.1.5+dfsg1-2build2*
G04 #@! TF.CreationDate,2021-07-21T17:56:19+05:30*
G04 #@! TF.ProjectId,tank_full_indicator,74616e6b-5f66-4756-9c6c-5f696e646963,rev?*
G04 #@! TF.SameCoordinates,Original*
G04 #@! TF.FileFunction,Copper,L2,Bot*
G04 #@! TF.FilePolarity,Positive*
%FSLAX46Y46*%
G04 Gerber Fmt 4.6, Leading zero omitted, Abs format (unit mm)*
G04 Created by KiCad (PCBNEW 5.1.5+dfsg1-2build2) date 2021-07-21 17:56:19*
%MOMM*%
%LPD*%
G04 APERTURE LIST*
%ADD10R,1.800000X1.800000*%
%ADD11C,1.800000*%
%ADD12R,1.600000X1.600000*%
%ADD13O,1.600000X1.600000*%
%ADD14R,2.000000X2.000000*%
%ADD15C,2.000000*%
%ADD16C,1.600000*%
%ADD17C,2.400000*%
%ADD18O,2.400000X2.400000*%
%ADD19C,1.750000*%
%ADD20C,0.250000*%
%ADD21C,0.254000*%
G04 APERTURE END LIST*
D10*
X162560000Y-101600000D03*
D11*
X165100000Y-101600000D03*
D12*
X149860000Y-90170000D03*
D13*
X157480000Y-97790000D03*
X149860000Y-92710000D03*
X157480000Y-95250000D03*
X149860000Y-95250000D03*
X157480000Y-92710000D03*
X149860000Y-97790000D03*
X157480000Y-90170000D03*
D14*
X132015001Y-100330000D03*
D15*
X139615001Y-100330000D03*
D12*
X157480000Y-104140000D03*
D16*
X154980000Y-104140000D03*
D12*
X143510000Y-102870000D03*
D16*
X148510000Y-102870000D03*
D17*
X131015001Y-84625001D03*
D18*
X146255001Y-84625001D03*
X146255001Y-89775001D03*
D17*
X131015001Y-89775001D03*
X151130000Y-84625001D03*
D18*
X166370000Y-84625001D03*
D19*
X163705001Y-89245001D03*
X161165001Y-91785001D03*
X163705001Y-94325001D03*
D15*
X130810000Y-81280000D03*
X166370000Y-106680000D03*
D20*
X151130000Y-84625001D02*
X151130000Y-86360000D01*
X154940000Y-90170000D02*
X157480000Y-90170000D01*
X151130000Y-86360000D02*
X154940000Y-90170000D01*
X157480000Y-90170000D02*
X156210000Y-90170000D01*
X131015001Y-99330000D02*
X132015001Y-100330000D01*
X131015001Y-89775001D02*
X131015001Y-99330000D01*
X157480000Y-90170000D02*
X153670000Y-93980000D01*
X153670000Y-93980000D02*
X153670000Y-96520000D01*
X152400000Y-97790000D02*
X149860000Y-97790000D01*
X153670000Y-96520000D02*
X152400000Y-97790000D01*
X158020001Y-96664999D02*
X154795001Y-96664999D01*
X160020000Y-98664998D02*
X158020001Y-96664999D01*
X160020000Y-105410000D02*
X160020000Y-98664998D01*
X152400000Y-99060000D02*
X151130000Y-99060000D01*
X157480000Y-107950000D02*
X160020000Y-105410000D01*
X151130000Y-99060000D02*
X149860000Y-97790000D01*
X154795001Y-96664999D02*
X152400000Y-99060000D01*
X138385001Y-107950000D02*
X157480000Y-107950000D01*
X132015001Y-101580000D02*
X138385001Y-107950000D01*
X132015001Y-100330000D02*
X132015001Y-101580000D01*
X139615001Y-100330000D02*
X142240000Y-100330000D01*
X143510000Y-101600000D02*
X143510000Y-102870000D01*
X142240000Y-100330000D02*
X143510000Y-101600000D01*
X157480000Y-95250000D02*
X160020000Y-95250000D01*
X162560000Y-97790000D02*
X162560000Y-101600000D01*
X160020000Y-95250000D02*
X162560000Y-97790000D01*
X149860000Y-92710000D02*
X149860000Y-95250000D01*
X146255001Y-86322057D02*
X146255001Y-89775001D01*
X146255001Y-84625001D02*
X146255001Y-86322057D01*
X157480000Y-92710000D02*
X157480000Y-95250000D01*
X161165001Y-91785001D02*
X156210000Y-86830000D01*
X156210000Y-86830000D02*
X156210000Y-85090000D01*
X156210000Y-85090000D02*
X153670000Y-82550000D01*
X148330002Y-82550000D02*
X146255001Y-84625001D01*
X153670000Y-82550000D02*
X148330002Y-82550000D01*
X149860000Y-92710000D02*
X151130000Y-92710000D01*
X151130000Y-92710000D02*
X152400000Y-91440000D01*
X152400000Y-91440000D02*
X152400000Y-88900000D01*
X152400000Y-88900000D02*
X151130000Y-87630000D01*
X148400002Y-87630000D02*
X146255001Y-89775001D01*
X151130000Y-87630000D02*
X148400002Y-87630000D01*
X149860000Y-95250000D02*
X146050000Y-99060000D01*
X146050000Y-99060000D02*
X146050000Y-101600000D01*
X144780000Y-102870000D02*
X143510000Y-102870000D01*
X146050000Y-101600000D02*
X144780000Y-102870000D01*
X157700002Y-95250000D02*
X157480000Y-95250000D01*
X161165001Y-91785001D02*
X157700002Y-95250000D01*
X157480000Y-97790000D02*
X157480000Y-104140000D01*
X149780000Y-104140000D02*
X148510000Y-102870000D01*
X154980000Y-104140000D02*
X149780000Y-104140000D01*
X148510000Y-104220000D02*
X148510000Y-102870000D01*
X146050000Y-106680000D02*
X148510000Y-104220000D01*
X139700000Y-106680000D02*
X146050000Y-106680000D01*
X134620000Y-101600000D02*
X139700000Y-106680000D01*
X134620000Y-99060000D02*
X134620000Y-101600000D01*
X141190000Y-97790000D02*
X135890000Y-97790000D01*
X135890000Y-97790000D02*
X134620000Y-99060000D01*
X148810000Y-90170000D02*
X141190000Y-97790000D01*
X149860000Y-90170000D02*
X148810000Y-90170000D01*
X164649990Y-108400010D02*
X137610010Y-108400010D01*
X166370000Y-106680000D02*
X164649990Y-108400010D01*
X137610010Y-108400010D02*
X137160000Y-107950000D01*
X137160000Y-107950000D02*
X135890000Y-107950000D01*
X167640000Y-85895001D02*
X166370000Y-84625001D01*
X167640000Y-99060000D02*
X167640000Y-85895001D01*
X165100000Y-101600000D02*
X167640000Y-99060000D01*
X134360002Y-81280000D02*
X131015001Y-84625001D01*
X166370000Y-88900000D02*
X158750000Y-81280000D01*
X166370000Y-91660002D02*
X166370000Y-88900000D01*
X158750000Y-81280000D02*
X134360002Y-81280000D01*
X163705001Y-94325001D02*
X166370000Y-91660002D01*
D21*
G36*
X161800000Y-98104803D02*
G01*
X161800001Y-100061928D01*
X161660000Y-100061928D01*
X161535518Y-100074188D01*
X161415820Y-100110498D01*
X161305506Y-100169463D01*
X161208815Y-100248815D01*
X161129463Y-100345506D01*
X161070498Y-100455820D01*
X161034188Y-100575518D01*
X161021928Y-100700000D01*
X161021928Y-102500000D01*
X161034188Y-102624482D01*
X161070498Y-102744180D01*
X161129463Y-102854494D01*
X161208815Y-102951185D01*
X161305506Y-103030537D01*
X161415820Y-103089502D01*
X161535518Y-103125812D01*
X161660000Y-103138072D01*
X163460000Y-103138072D01*
X163584482Y-103125812D01*
X163704180Y-103089502D01*
X163814494Y-103030537D01*
X163911185Y-102951185D01*
X163990537Y-102854494D01*
X164049502Y-102744180D01*
X164055056Y-102725873D01*
X164121495Y-102792312D01*
X164372905Y-102960299D01*
X164652257Y-103076011D01*
X164948816Y-103135000D01*
X165251184Y-103135000D01*
X165547743Y-103076011D01*
X165827095Y-102960299D01*
X166078505Y-102792312D01*
X166292312Y-102578505D01*
X166460299Y-102327095D01*
X166576011Y-102047743D01*
X166635000Y-101751184D01*
X166635000Y-101448816D01*
X166583731Y-101191070D01*
X168151009Y-99623794D01*
X168180001Y-99600001D01*
X168203795Y-99571008D01*
X168203799Y-99571004D01*
X168250000Y-99514707D01*
X168250000Y-108560000D01*
X157934707Y-108560000D01*
X158020001Y-108490001D01*
X158043804Y-108460997D01*
X160531009Y-105973794D01*
X160560001Y-105950001D01*
X160583795Y-105921008D01*
X160583799Y-105921004D01*
X160654973Y-105834277D01*
X160654974Y-105834276D01*
X160725546Y-105702247D01*
X160769003Y-105558986D01*
X160780000Y-105447333D01*
X160780000Y-105447324D01*
X160783676Y-105410001D01*
X160780000Y-105372678D01*
X160780000Y-98702323D01*
X160783676Y-98664998D01*
X160780000Y-98627673D01*
X160780000Y-98627665D01*
X160769003Y-98516012D01*
X160725546Y-98372751D01*
X160654974Y-98240722D01*
X160560001Y-98124997D01*
X160531003Y-98101199D01*
X158594600Y-96164796D01*
X158594637Y-96164759D01*
X158698043Y-96010000D01*
X159705199Y-96010000D01*
X161800000Y-98104803D01*
G37*
X161800000Y-98104803D02*
X161800001Y-100061928D01*
X161660000Y-100061928D01*
X161535518Y-100074188D01*
X161415820Y-100110498D01*
X161305506Y-100169463D01*
X161208815Y-100248815D01*
X161129463Y-100345506D01*
X161070498Y-100455820D01*
X161034188Y-100575518D01*
X161021928Y-100700000D01*
X161021928Y-102500000D01*
X161034188Y-102624482D01*
X161070498Y-102744180D01*
X161129463Y-102854494D01*
X161208815Y-102951185D01*
X161305506Y-103030537D01*
X161415820Y-103089502D01*
X161535518Y-103125812D01*
X161660000Y-103138072D01*
X163460000Y-103138072D01*
X163584482Y-103125812D01*
X163704180Y-103089502D01*
X163814494Y-103030537D01*
X163911185Y-102951185D01*
X163990537Y-102854494D01*
X164049502Y-102744180D01*
X164055056Y-102725873D01*
X164121495Y-102792312D01*
X164372905Y-102960299D01*
X164652257Y-103076011D01*
X164948816Y-103135000D01*
X165251184Y-103135000D01*
X165547743Y-103076011D01*
X165827095Y-102960299D01*
X166078505Y-102792312D01*
X166292312Y-102578505D01*
X166460299Y-102327095D01*
X166576011Y-102047743D01*
X166635000Y-101751184D01*
X166635000Y-101448816D01*
X166583731Y-101191070D01*
X168151009Y-99623794D01*
X168180001Y-99600001D01*
X168203795Y-99571008D01*
X168203799Y-99571004D01*
X168250000Y-99514707D01*
X168250000Y-108560000D01*
X157934707Y-108560000D01*
X158020001Y-108490001D01*
X158043804Y-108460997D01*
X160531009Y-105973794D01*
X160560001Y-105950001D01*
X160583795Y-105921008D01*
X160583799Y-105921004D01*
X160654973Y-105834277D01*
X160654974Y-105834276D01*
X160725546Y-105702247D01*
X160769003Y-105558986D01*
X160780000Y-105447333D01*
X160780000Y-105447324D01*
X160783676Y-105410001D01*
X160780000Y-105372678D01*
X160780000Y-98702323D01*
X160783676Y-98664998D01*
X160780000Y-98627673D01*
X160780000Y-98627665D01*
X160769003Y-98516012D01*
X160725546Y-98372751D01*
X160654974Y-98240722D01*
X160560001Y-98124997D01*
X160531003Y-98101199D01*
X158594600Y-96164796D01*
X158594637Y-96164759D01*
X158698043Y-96010000D01*
X159705199Y-96010000D01*
X161800000Y-98104803D01*
G36*
X168250001Y-85440295D02*
G01*
X168180001Y-85355000D01*
X168151003Y-85331202D01*
X168089251Y-85269450D01*
X168134482Y-85160251D01*
X168205000Y-84805733D01*
X168205000Y-84444269D01*
X168134482Y-84089751D01*
X167996156Y-83755802D01*
X167795338Y-83455257D01*
X167539744Y-83199663D01*
X167239199Y-82998845D01*
X166905250Y-82860519D01*
X166550732Y-82790001D01*
X166189268Y-82790001D01*
X165834750Y-82860519D01*
X165500801Y-82998845D01*
X165200256Y-83199663D01*
X164944662Y-83455257D01*
X164743844Y-83755802D01*
X164605518Y-84089751D01*
X164535000Y-84444269D01*
X164535000Y-84805733D01*
X164605518Y-85160251D01*
X164743844Y-85494200D01*
X164944662Y-85794745D01*
X165200256Y-86050339D01*
X165500801Y-86251157D01*
X165834750Y-86389483D01*
X166189268Y-86460001D01*
X166550732Y-86460001D01*
X166880001Y-86394505D01*
X166880001Y-88335199D01*
X159313804Y-80769003D01*
X159290001Y-80739999D01*
X159174276Y-80645026D01*
X159042247Y-80574454D01*
X158898986Y-80530997D01*
X158787333Y-80520000D01*
X158787322Y-80520000D01*
X158750000Y-80516324D01*
X158712678Y-80520000D01*
X134397327Y-80520000D01*
X134360002Y-80516324D01*
X134322677Y-80520000D01*
X134322669Y-80520000D01*
X134211016Y-80530997D01*
X134067755Y-80574454D01*
X133935726Y-80645026D01*
X133820001Y-80739999D01*
X133796203Y-80768997D01*
X131659450Y-82905751D01*
X131550251Y-82860519D01*
X131195733Y-82790001D01*
X130834269Y-82790001D01*
X130479751Y-82860519D01*
X130145802Y-82998845D01*
X129845257Y-83199663D01*
X129589663Y-83455257D01*
X129388845Y-83755802D01*
X129250519Y-84089751D01*
X129180001Y-84444269D01*
X129180001Y-84805733D01*
X129250519Y-85160251D01*
X129388845Y-85494200D01*
X129589663Y-85794745D01*
X129845257Y-86050339D01*
X130145802Y-86251157D01*
X130479751Y-86389483D01*
X130834269Y-86460001D01*
X131195733Y-86460001D01*
X131550251Y-86389483D01*
X131884200Y-86251157D01*
X132184745Y-86050339D01*
X132440339Y-85794745D01*
X132641157Y-85494200D01*
X132779483Y-85160251D01*
X132850001Y-84805733D01*
X132850001Y-84444269D01*
X132779483Y-84089751D01*
X132734251Y-83980552D01*
X134674804Y-82040000D01*
X147765200Y-82040000D01*
X146899450Y-82905751D01*
X146790251Y-82860519D01*
X146435733Y-82790001D01*
X146074269Y-82790001D01*
X145719751Y-82860519D01*
X145385802Y-82998845D01*
X145085257Y-83199663D01*
X144829663Y-83455257D01*
X144628845Y-83755802D01*
X144490519Y-84089751D01*
X144420001Y-84444269D01*
X144420001Y-84805733D01*
X144490519Y-85160251D01*
X144628845Y-85494200D01*
X144829663Y-85794745D01*
X145085257Y-86050339D01*
X145385802Y-86251157D01*
X145495001Y-86296389D01*
X145495002Y-88103613D01*
X145385802Y-88148845D01*
X145085257Y-88349663D01*
X144829663Y-88605257D01*
X144628845Y-88905802D01*
X144490519Y-89239751D01*
X144420001Y-89594269D01*
X144420001Y-89955733D01*
X144490519Y-90310251D01*
X144628845Y-90644200D01*
X144829663Y-90944745D01*
X145085257Y-91200339D01*
X145385802Y-91401157D01*
X145719751Y-91539483D01*
X146074269Y-91610001D01*
X146435733Y-91610001D01*
X146790251Y-91539483D01*
X147124200Y-91401157D01*
X147424745Y-91200339D01*
X147680339Y-90944745D01*
X147881157Y-90644200D01*
X148019483Y-90310251D01*
X148090001Y-89955733D01*
X148090001Y-89594269D01*
X148045392Y-89370000D01*
X148421928Y-89370000D01*
X148425000Y-89884250D01*
X148583750Y-90043000D01*
X149733000Y-90043000D01*
X149733000Y-88893750D01*
X149987000Y-88893750D01*
X149987000Y-90043000D01*
X151136250Y-90043000D01*
X151295000Y-89884250D01*
X151298072Y-89370000D01*
X151285812Y-89245518D01*
X151249502Y-89125820D01*
X151190537Y-89015506D01*
X151111185Y-88918815D01*
X151014494Y-88839463D01*
X150904180Y-88780498D01*
X150784482Y-88744188D01*
X150660000Y-88731928D01*
X150145750Y-88735000D01*
X149987000Y-88893750D01*
X149733000Y-88893750D01*
X149574250Y-88735000D01*
X149060000Y-88731928D01*
X148935518Y-88744188D01*
X148815820Y-88780498D01*
X148705506Y-88839463D01*
X148608815Y-88918815D01*
X148529463Y-89015506D01*
X148470498Y-89125820D01*
X148434188Y-89245518D01*
X148421928Y-89370000D01*
X148045392Y-89370000D01*
X148019483Y-89239751D01*
X147974251Y-89130552D01*
X148714804Y-88390000D01*
X150815199Y-88390000D01*
X151640001Y-89214803D01*
X151640000Y-91125198D01*
X150972297Y-91792901D01*
X150776039Y-91596643D01*
X150784482Y-91595812D01*
X150904180Y-91559502D01*
X151014494Y-91500537D01*
X151111185Y-91421185D01*
X151190537Y-91324494D01*
X151249502Y-91214180D01*
X151285812Y-91094482D01*
X151298072Y-90970000D01*
X151295000Y-90455750D01*
X151136250Y-90297000D01*
X149987000Y-90297000D01*
X149987000Y-90317000D01*
X149733000Y-90317000D01*
X149733000Y-90297000D01*
X148583750Y-90297000D01*
X148425000Y-90455750D01*
X148421928Y-90970000D01*
X148434188Y-91094482D01*
X148470498Y-91214180D01*
X148529463Y-91324494D01*
X148608815Y-91421185D01*
X148705506Y-91500537D01*
X148815820Y-91559502D01*
X148935518Y-91595812D01*
X148943961Y-91596643D01*
X148745363Y-91795241D01*
X148588320Y-92030273D01*
X148480147Y-92291426D01*
X148425000Y-92568665D01*
X148425000Y-92851335D01*
X148480147Y-93128574D01*
X148588320Y-93389727D01*
X148745363Y-93624759D01*
X148945241Y-93824637D01*
X149100000Y-93928044D01*
X149100001Y-94031956D01*
X148945241Y-94135363D01*
X148745363Y-94335241D01*
X148588320Y-94570273D01*
X148480147Y-94831426D01*
X148425000Y-95108665D01*
X148425000Y-95391335D01*
X148461312Y-95573886D01*
X145539003Y-98496196D01*
X145509999Y-98519999D01*
X145459939Y-98580998D01*
X145415026Y-98635724D01*
X145399379Y-98664998D01*
X145344454Y-98767754D01*
X145300997Y-98911015D01*
X145290000Y-99022668D01*
X145290000Y-99022678D01*
X145286324Y-99060000D01*
X145290000Y-99097323D01*
X145290001Y-101285197D01*
X144847209Y-101727989D01*
X144840537Y-101715506D01*
X144761185Y-101618815D01*
X144664494Y-101539463D01*
X144554180Y-101480498D01*
X144434482Y-101444188D01*
X144310000Y-101431928D01*
X144253213Y-101431928D01*
X144215546Y-101307753D01*
X144144974Y-101175724D01*
X144050001Y-101059999D01*
X144021003Y-101036201D01*
X142803804Y-99819003D01*
X142780001Y-99789999D01*
X142664276Y-99695026D01*
X142532247Y-99624454D01*
X142388986Y-99580997D01*
X142277333Y-99570000D01*
X142277322Y-99570000D01*
X142240000Y-99566324D01*
X142202678Y-99570000D01*
X141069910Y-99570000D01*
X141063919Y-99555537D01*
X140884988Y-99287748D01*
X140657253Y-99060013D01*
X140389464Y-98881082D01*
X140091913Y-98757832D01*
X139776034Y-98695000D01*
X139453968Y-98695000D01*
X139138089Y-98757832D01*
X138840538Y-98881082D01*
X138572749Y-99060013D01*
X138345014Y-99287748D01*
X138166083Y-99555537D01*
X138042833Y-99853088D01*
X137980001Y-100168967D01*
X137980001Y-100491033D01*
X138042833Y-100806912D01*
X138166083Y-101104463D01*
X138345014Y-101372252D01*
X138572749Y-101599987D01*
X138840538Y-101778918D01*
X139138089Y-101902168D01*
X139453968Y-101965000D01*
X139776034Y-101965000D01*
X140091913Y-101902168D01*
X140389464Y-101778918D01*
X140657253Y-101599987D01*
X140884988Y-101372252D01*
X141063919Y-101104463D01*
X141069910Y-101090000D01*
X141925199Y-101090000D01*
X142367989Y-101532791D01*
X142355506Y-101539463D01*
X142258815Y-101618815D01*
X142179463Y-101715506D01*
X142120498Y-101825820D01*
X142084188Y-101945518D01*
X142071928Y-102070000D01*
X142071928Y-103670000D01*
X142084188Y-103794482D01*
X142120498Y-103914180D01*
X142179463Y-104024494D01*
X142258815Y-104121185D01*
X142355506Y-104200537D01*
X142465820Y-104259502D01*
X142585518Y-104295812D01*
X142710000Y-104308072D01*
X144310000Y-104308072D01*
X144434482Y-104295812D01*
X144554180Y-104259502D01*
X144664494Y-104200537D01*
X144761185Y-104121185D01*
X144840537Y-104024494D01*
X144899502Y-103914180D01*
X144915117Y-103862702D01*
X147696903Y-103862702D01*
X147768486Y-104106671D01*
X148023996Y-104227571D01*
X148298184Y-104296300D01*
X148580512Y-104310217D01*
X148860130Y-104268787D01*
X149023083Y-104210512D01*
X153539783Y-104210512D01*
X153581213Y-104490130D01*
X153676397Y-104756292D01*
X153743329Y-104881514D01*
X153987298Y-104953097D01*
X154800395Y-104140000D01*
X153987298Y-103326903D01*
X153743329Y-103398486D01*
X153622429Y-103653996D01*
X153553700Y-103928184D01*
X153539783Y-104210512D01*
X149023083Y-104210512D01*
X149126292Y-104173603D01*
X149251514Y-104106671D01*
X149323097Y-103862702D01*
X148510000Y-103049605D01*
X147696903Y-103862702D01*
X144915117Y-103862702D01*
X144935812Y-103794482D01*
X144948072Y-103670000D01*
X144948072Y-103613213D01*
X145072247Y-103575546D01*
X145204276Y-103504974D01*
X145320001Y-103410001D01*
X145343804Y-103380997D01*
X145784289Y-102940512D01*
X147069783Y-102940512D01*
X147111213Y-103220130D01*
X147206397Y-103486292D01*
X147273329Y-103611514D01*
X147517298Y-103683097D01*
X148330395Y-102870000D01*
X148689605Y-102870000D01*
X149502702Y-103683097D01*
X149746671Y-103611514D01*
X149867571Y-103356004D01*
X149919886Y-103147298D01*
X154166903Y-103147298D01*
X154980000Y-103960395D01*
X155793097Y-103147298D01*
X155721514Y-102903329D01*
X155466004Y-102782429D01*
X155191816Y-102713700D01*
X154909488Y-102699783D01*
X154629870Y-102741213D01*
X154363708Y-102836397D01*
X154238486Y-102903329D01*
X154166903Y-103147298D01*
X149919886Y-103147298D01*
X149936300Y-103081816D01*
X149950217Y-102799488D01*
X149908787Y-102519870D01*
X149813603Y-102253708D01*
X149746671Y-102128486D01*
X149502702Y-102056903D01*
X148689605Y-102870000D01*
X148330395Y-102870000D01*
X147517298Y-102056903D01*
X147273329Y-102128486D01*
X147152429Y-102383996D01*
X147083700Y-102658184D01*
X147069783Y-102940512D01*
X145784289Y-102940512D01*
X146561003Y-102163799D01*
X146590001Y-102140001D01*
X146684974Y-102024276D01*
X146755546Y-101892247D01*
X146760080Y-101877298D01*
X147696903Y-101877298D01*
X148510000Y-102690395D01*
X149323097Y-101877298D01*
X149251514Y-101633329D01*
X148996004Y-101512429D01*
X148721816Y-101443700D01*
X148439488Y-101429783D01*
X148159870Y-101471213D01*
X147893708Y-101566397D01*
X147768486Y-101633329D01*
X147696903Y-101877298D01*
X146760080Y-101877298D01*
X146799003Y-101748986D01*
X146810000Y-101637333D01*
X146810000Y-101637324D01*
X146813676Y-101600001D01*
X146810000Y-101562678D01*
X146810000Y-99374801D01*
X148425000Y-97759801D01*
X148425000Y-97931335D01*
X148480147Y-98208574D01*
X148588320Y-98469727D01*
X148745363Y-98704759D01*
X148945241Y-98904637D01*
X149180273Y-99061680D01*
X149441426Y-99169853D01*
X149718665Y-99225000D01*
X150001335Y-99225000D01*
X150183886Y-99188688D01*
X150566201Y-99571003D01*
X150589999Y-99600001D01*
X150705724Y-99694974D01*
X150837753Y-99765546D01*
X150981014Y-99809003D01*
X151092667Y-99820000D01*
X151092676Y-99820000D01*
X151129999Y-99823676D01*
X151167322Y-99820000D01*
X152362678Y-99820000D01*
X152400000Y-99823676D01*
X152437322Y-99820000D01*
X152437333Y-99820000D01*
X152548986Y-99809003D01*
X152692247Y-99765546D01*
X152824276Y-99694974D01*
X152940001Y-99600001D01*
X152963804Y-99570997D01*
X155109803Y-97424999D01*
X156089491Y-97424999D01*
X156045000Y-97648665D01*
X156045000Y-97931335D01*
X156100147Y-98208574D01*
X156208320Y-98469727D01*
X156365363Y-98704759D01*
X156565241Y-98904637D01*
X156720000Y-99008044D01*
X156720001Y-102701928D01*
X156680000Y-102701928D01*
X156555518Y-102714188D01*
X156435820Y-102750498D01*
X156325506Y-102809463D01*
X156228815Y-102888815D01*
X156149463Y-102985506D01*
X156090498Y-103095820D01*
X156054188Y-103215518D01*
X156041928Y-103340000D01*
X156041928Y-103347215D01*
X155972702Y-103326903D01*
X155159605Y-104140000D01*
X155972702Y-104953097D01*
X156041928Y-104932785D01*
X156041928Y-104940000D01*
X156054188Y-105064482D01*
X156090498Y-105184180D01*
X156149463Y-105294494D01*
X156228815Y-105391185D01*
X156325506Y-105470537D01*
X156435820Y-105529502D01*
X156555518Y-105565812D01*
X156680000Y-105578072D01*
X158280000Y-105578072D01*
X158404482Y-105565812D01*
X158524180Y-105529502D01*
X158634494Y-105470537D01*
X158731185Y-105391185D01*
X158810537Y-105294494D01*
X158869502Y-105184180D01*
X158905812Y-105064482D01*
X158918072Y-104940000D01*
X158918072Y-103340000D01*
X158905812Y-103215518D01*
X158869502Y-103095820D01*
X158810537Y-102985506D01*
X158731185Y-102888815D01*
X158634494Y-102809463D01*
X158524180Y-102750498D01*
X158404482Y-102714188D01*
X158280000Y-102701928D01*
X158240000Y-102701928D01*
X158240000Y-99008043D01*
X158394759Y-98904637D01*
X158594637Y-98704759D01*
X158750978Y-98470778D01*
X159260001Y-98979801D01*
X159260000Y-105095197D01*
X157165199Y-107190000D01*
X138699804Y-107190000D01*
X136642506Y-105132702D01*
X154166903Y-105132702D01*
X154238486Y-105376671D01*
X154493996Y-105497571D01*
X154768184Y-105566300D01*
X155050512Y-105580217D01*
X155330130Y-105538787D01*
X155596292Y-105443603D01*
X155721514Y-105376671D01*
X155793097Y-105132702D01*
X154980000Y-104319605D01*
X154166903Y-105132702D01*
X136642506Y-105132702D01*
X133369959Y-101860156D01*
X133466186Y-101781185D01*
X133545538Y-101684494D01*
X133604503Y-101574180D01*
X133640813Y-101454482D01*
X133653073Y-101330000D01*
X133653073Y-99330000D01*
X133640813Y-99205518D01*
X133604503Y-99085820D01*
X133545538Y-98975506D01*
X133466186Y-98878815D01*
X133369495Y-98799463D01*
X133259181Y-98740498D01*
X133139483Y-98704188D01*
X133015001Y-98691928D01*
X131775001Y-98691928D01*
X131775001Y-91446389D01*
X131884200Y-91401157D01*
X132184745Y-91200339D01*
X132440339Y-90944745D01*
X132641157Y-90644200D01*
X132779483Y-90310251D01*
X132850001Y-89955733D01*
X132850001Y-89594269D01*
X132779483Y-89239751D01*
X132641157Y-88905802D01*
X132440339Y-88605257D01*
X132184745Y-88349663D01*
X131884200Y-88148845D01*
X131550251Y-88010519D01*
X131195733Y-87940001D01*
X130834269Y-87940001D01*
X130479751Y-88010519D01*
X130145802Y-88148845D01*
X129845257Y-88349663D01*
X129589663Y-88605257D01*
X129388845Y-88905802D01*
X129250519Y-89239751D01*
X129180001Y-89594269D01*
X129180001Y-89955733D01*
X129250519Y-90310251D01*
X129388845Y-90644200D01*
X129589663Y-90944745D01*
X129845257Y-91200339D01*
X130145802Y-91401157D01*
X130255001Y-91446389D01*
X130255002Y-99292668D01*
X130251325Y-99330000D01*
X130255002Y-99367333D01*
X130265999Y-99478986D01*
X130267604Y-99484276D01*
X130309455Y-99622246D01*
X130376929Y-99748480D01*
X130376929Y-101330000D01*
X130389189Y-101454482D01*
X130425499Y-101574180D01*
X130484464Y-101684494D01*
X130563816Y-101781185D01*
X130660507Y-101860537D01*
X130770821Y-101919502D01*
X130890519Y-101955812D01*
X131015001Y-101968072D01*
X131360675Y-101968072D01*
X131380027Y-102004276D01*
X131433966Y-102070000D01*
X131475001Y-102120001D01*
X131503999Y-102143799D01*
X137821206Y-108461008D01*
X137845000Y-108490001D01*
X137873993Y-108513795D01*
X137873997Y-108513799D01*
X137930294Y-108560000D01*
X128930000Y-108560000D01*
X128930000Y-79400000D01*
X168250001Y-79400000D01*
X168250001Y-85440295D01*
G37*
X168250001Y-85440295D02*
X168180001Y-85355000D01*
X168151003Y-85331202D01*
X168089251Y-85269450D01*
X168134482Y-85160251D01*
X168205000Y-84805733D01*
X168205000Y-84444269D01*
X168134482Y-84089751D01*
X167996156Y-83755802D01*
X167795338Y-83455257D01*
X167539744Y-83199663D01*
X167239199Y-82998845D01*
X166905250Y-82860519D01*
X166550732Y-82790001D01*
X166189268Y-82790001D01*
X165834750Y-82860519D01*
X165500801Y-82998845D01*
X165200256Y-83199663D01*
X164944662Y-83455257D01*
X164743844Y-83755802D01*
X164605518Y-84089751D01*
X164535000Y-84444269D01*
X164535000Y-84805733D01*
X164605518Y-85160251D01*
X164743844Y-85494200D01*
X164944662Y-85794745D01*
X165200256Y-86050339D01*
X165500801Y-86251157D01*
X165834750Y-86389483D01*
X166189268Y-86460001D01*
X166550732Y-86460001D01*
X166880001Y-86394505D01*
X166880001Y-88335199D01*
X159313804Y-80769003D01*
X159290001Y-80739999D01*
X159174276Y-80645026D01*
X159042247Y-80574454D01*
X158898986Y-80530997D01*
X158787333Y-80520000D01*
X158787322Y-80520000D01*
X158750000Y-80516324D01*
X158712678Y-80520000D01*
X134397327Y-80520000D01*
X134360002Y-80516324D01*
X134322677Y-80520000D01*
X134322669Y-80520000D01*
X134211016Y-80530997D01*
X134067755Y-80574454D01*
X133935726Y-80645026D01*
X133820001Y-80739999D01*
X133796203Y-80768997D01*
X131659450Y-82905751D01*
X131550251Y-82860519D01*
X131195733Y-82790001D01*
X130834269Y-82790001D01*
X130479751Y-82860519D01*
X130145802Y-82998845D01*
X129845257Y-83199663D01*
X129589663Y-83455257D01*
X129388845Y-83755802D01*
X129250519Y-84089751D01*
X129180001Y-84444269D01*
X129180001Y-84805733D01*
X129250519Y-85160251D01*
X129388845Y-85494200D01*
X129589663Y-85794745D01*
X129845257Y-86050339D01*
X130145802Y-86251157D01*
X130479751Y-86389483D01*
X130834269Y-86460001D01*
X131195733Y-86460001D01*
X131550251Y-86389483D01*
X131884200Y-86251157D01*
X132184745Y-86050339D01*
X132440339Y-85794745D01*
X132641157Y-85494200D01*
X132779483Y-85160251D01*
X132850001Y-84805733D01*
X132850001Y-84444269D01*
X132779483Y-84089751D01*
X132734251Y-83980552D01*
X134674804Y-82040000D01*
X147765200Y-82040000D01*
X146899450Y-82905751D01*
X146790251Y-82860519D01*
X146435733Y-82790001D01*
X146074269Y-82790001D01*
X145719751Y-82860519D01*
X145385802Y-82998845D01*
X145085257Y-83199663D01*
X144829663Y-83455257D01*
X144628845Y-83755802D01*
X144490519Y-84089751D01*
X144420001Y-84444269D01*
X144420001Y-84805733D01*
X144490519Y-85160251D01*
X144628845Y-85494200D01*
X144829663Y-85794745D01*
X145085257Y-86050339D01*
X145385802Y-86251157D01*
X145495001Y-86296389D01*
X145495002Y-88103613D01*
X145385802Y-88148845D01*
X145085257Y-88349663D01*
X144829663Y-88605257D01*
X144628845Y-88905802D01*
X144490519Y-89239751D01*
X144420001Y-89594269D01*
X144420001Y-89955733D01*
X144490519Y-90310251D01*
X144628845Y-90644200D01*
X144829663Y-90944745D01*
X145085257Y-91200339D01*
X145385802Y-91401157D01*
X145719751Y-91539483D01*
X146074269Y-91610001D01*
X146435733Y-91610001D01*
X146790251Y-91539483D01*
X147124200Y-91401157D01*
X147424745Y-91200339D01*
X147680339Y-90944745D01*
X147881157Y-90644200D01*
X148019483Y-90310251D01*
X148090001Y-89955733D01*
X148090001Y-89594269D01*
X148045392Y-89370000D01*
X148421928Y-89370000D01*
X148425000Y-89884250D01*
X148583750Y-90043000D01*
X149733000Y-90043000D01*
X149733000Y-88893750D01*
X149987000Y-88893750D01*
X149987000Y-90043000D01*
X151136250Y-90043000D01*
X151295000Y-89884250D01*
X151298072Y-89370000D01*
X151285812Y-89245518D01*
X151249502Y-89125820D01*
X151190537Y-89015506D01*
X151111185Y-88918815D01*
X151014494Y-88839463D01*
X150904180Y-88780498D01*
X150784482Y-88744188D01*
X150660000Y-88731928D01*
X150145750Y-88735000D01*
X149987000Y-88893750D01*
X149733000Y-88893750D01*
X149574250Y-88735000D01*
X149060000Y-88731928D01*
X148935518Y-88744188D01*
X148815820Y-88780498D01*
X148705506Y-88839463D01*
X148608815Y-88918815D01*
X148529463Y-89015506D01*
X148470498Y-89125820D01*
X148434188Y-89245518D01*
X148421928Y-89370000D01*
X148045392Y-89370000D01*
X148019483Y-89239751D01*
X147974251Y-89130552D01*
X148714804Y-88390000D01*
X150815199Y-88390000D01*
X151640001Y-89214803D01*
X151640000Y-91125198D01*
X150972297Y-91792901D01*
X150776039Y-91596643D01*
X150784482Y-91595812D01*
X150904180Y-91559502D01*
X151014494Y-91500537D01*
X151111185Y-91421185D01*
X151190537Y-91324494D01*
X151249502Y-91214180D01*
X151285812Y-91094482D01*
X151298072Y-90970000D01*
X151295000Y-90455750D01*
X151136250Y-90297000D01*
X149987000Y-90297000D01*
X149987000Y-90317000D01*
X149733000Y-90317000D01*
X149733000Y-90297000D01*
X148583750Y-90297000D01*
X148425000Y-90455750D01*
X148421928Y-90970000D01*
X148434188Y-91094482D01*
X148470498Y-91214180D01*
X148529463Y-91324494D01*
X148608815Y-91421185D01*
X148705506Y-91500537D01*
X148815820Y-91559502D01*
X148935518Y-91595812D01*
X148943961Y-91596643D01*
X148745363Y-91795241D01*
X148588320Y-92030273D01*
X148480147Y-92291426D01*
X148425000Y-92568665D01*
X148425000Y-92851335D01*
X148480147Y-93128574D01*
X148588320Y-93389727D01*
X148745363Y-93624759D01*
X148945241Y-93824637D01*
X149100000Y-93928044D01*
X149100001Y-94031956D01*
X148945241Y-94135363D01*
X148745363Y-94335241D01*
X148588320Y-94570273D01*
X148480147Y-94831426D01*
X148425000Y-95108665D01*
X148425000Y-95391335D01*
X148461312Y-95573886D01*
X145539003Y-98496196D01*
X145509999Y-98519999D01*
X145459939Y-98580998D01*
X145415026Y-98635724D01*
X145399379Y-98664998D01*
X145344454Y-98767754D01*
X145300997Y-98911015D01*
X145290000Y-99022668D01*
X145290000Y-99022678D01*
X145286324Y-99060000D01*
X145290000Y-99097323D01*
X145290001Y-101285197D01*
X144847209Y-101727989D01*
X144840537Y-101715506D01*
X144761185Y-101618815D01*
X144664494Y-101539463D01*
X144554180Y-101480498D01*
X144434482Y-101444188D01*
X144310000Y-101431928D01*
X144253213Y-101431928D01*
X144215546Y-101307753D01*
X144144974Y-101175724D01*
X144050001Y-101059999D01*
X144021003Y-101036201D01*
X142803804Y-99819003D01*
X142780001Y-99789999D01*
X142664276Y-99695026D01*
X142532247Y-99624454D01*
X142388986Y-99580997D01*
X142277333Y-99570000D01*
X142277322Y-99570000D01*
X142240000Y-99566324D01*
X142202678Y-99570000D01*
X141069910Y-99570000D01*
X141063919Y-99555537D01*
X140884988Y-99287748D01*
X140657253Y-99060013D01*
X140389464Y-98881082D01*
X140091913Y-98757832D01*
X139776034Y-98695000D01*
X139453968Y-98695000D01*
X139138089Y-98757832D01*
X138840538Y-98881082D01*
X138572749Y-99060013D01*
X138345014Y-99287748D01*
X138166083Y-99555537D01*
X138042833Y-99853088D01*
X137980001Y-100168967D01*
X137980001Y-100491033D01*
X138042833Y-100806912D01*
X138166083Y-101104463D01*
X138345014Y-101372252D01*
X138572749Y-101599987D01*
X138840538Y-101778918D01*
X139138089Y-101902168D01*
X139453968Y-101965000D01*
X139776034Y-101965000D01*
X140091913Y-101902168D01*
X140389464Y-101778918D01*
X140657253Y-101599987D01*
X140884988Y-101372252D01*
X141063919Y-101104463D01*
X141069910Y-101090000D01*
X141925199Y-101090000D01*
X142367989Y-101532791D01*
X142355506Y-101539463D01*
X142258815Y-101618815D01*
X142179463Y-101715506D01*
X142120498Y-101825820D01*
X142084188Y-101945518D01*
X142071928Y-102070000D01*
X142071928Y-103670000D01*
X142084188Y-103794482D01*
X142120498Y-103914180D01*
X142179463Y-104024494D01*
X142258815Y-104121185D01*
X142355506Y-104200537D01*
X142465820Y-104259502D01*
X142585518Y-104295812D01*
X142710000Y-104308072D01*
X144310000Y-104308072D01*
X144434482Y-104295812D01*
X144554180Y-104259502D01*
X144664494Y-104200537D01*
X144761185Y-104121185D01*
X144840537Y-104024494D01*
X144899502Y-103914180D01*
X144915117Y-103862702D01*
X147696903Y-103862702D01*
X147768486Y-104106671D01*
X148023996Y-104227571D01*
X148298184Y-104296300D01*
X148580512Y-104310217D01*
X148860130Y-104268787D01*
X149023083Y-104210512D01*
X153539783Y-104210512D01*
X153581213Y-104490130D01*
X153676397Y-104756292D01*
X153743329Y-104881514D01*
X153987298Y-104953097D01*
X154800395Y-104140000D01*
X153987298Y-103326903D01*
X153743329Y-103398486D01*
X153622429Y-103653996D01*
X153553700Y-103928184D01*
X153539783Y-104210512D01*
X149023083Y-104210512D01*
X149126292Y-104173603D01*
X149251514Y-104106671D01*
X149323097Y-103862702D01*
X148510000Y-103049605D01*
X147696903Y-103862702D01*
X144915117Y-103862702D01*
X144935812Y-103794482D01*
X144948072Y-103670000D01*
X144948072Y-103613213D01*
X145072247Y-103575546D01*
X145204276Y-103504974D01*
X145320001Y-103410001D01*
X145343804Y-103380997D01*
X145784289Y-102940512D01*
X147069783Y-102940512D01*
X147111213Y-103220130D01*
X147206397Y-103486292D01*
X147273329Y-103611514D01*
X147517298Y-103683097D01*
X148330395Y-102870000D01*
X148689605Y-102870000D01*
X149502702Y-103683097D01*
X149746671Y-103611514D01*
X149867571Y-103356004D01*
X149919886Y-103147298D01*
X154166903Y-103147298D01*
X154980000Y-103960395D01*
X155793097Y-103147298D01*
X155721514Y-102903329D01*
X155466004Y-102782429D01*
X155191816Y-102713700D01*
X154909488Y-102699783D01*
X154629870Y-102741213D01*
X154363708Y-102836397D01*
X154238486Y-102903329D01*
X154166903Y-103147298D01*
X149919886Y-103147298D01*
X149936300Y-103081816D01*
X149950217Y-102799488D01*
X149908787Y-102519870D01*
X149813603Y-102253708D01*
X149746671Y-102128486D01*
X149502702Y-102056903D01*
X148689605Y-102870000D01*
X148330395Y-102870000D01*
X147517298Y-102056903D01*
X147273329Y-102128486D01*
X147152429Y-102383996D01*
X147083700Y-102658184D01*
X147069783Y-102940512D01*
X145784289Y-102940512D01*
X146561003Y-102163799D01*
X146590001Y-102140001D01*
X146684974Y-102024276D01*
X146755546Y-101892247D01*
X146760080Y-101877298D01*
X147696903Y-101877298D01*
X148510000Y-102690395D01*
X149323097Y-101877298D01*
X149251514Y-101633329D01*
X148996004Y-101512429D01*
X148721816Y-101443700D01*
X148439488Y-101429783D01*
X148159870Y-101471213D01*
X147893708Y-101566397D01*
X147768486Y-101633329D01*
X147696903Y-101877298D01*
X146760080Y-101877298D01*
X146799003Y-101748986D01*
X146810000Y-101637333D01*
X146810000Y-101637324D01*
X146813676Y-101600001D01*
X146810000Y-101562678D01*
X146810000Y-99374801D01*
X148425000Y-97759801D01*
X148425000Y-97931335D01*
X148480147Y-98208574D01*
X148588320Y-98469727D01*
X148745363Y-98704759D01*
X148945241Y-98904637D01*
X149180273Y-99061680D01*
X149441426Y-99169853D01*
X149718665Y-99225000D01*
X150001335Y-99225000D01*
X150183886Y-99188688D01*
X150566201Y-99571003D01*
X150589999Y-99600001D01*
X150705724Y-99694974D01*
X150837753Y-99765546D01*
X150981014Y-99809003D01*
X151092667Y-99820000D01*
X151092676Y-99820000D01*
X151129999Y-99823676D01*
X151167322Y-99820000D01*
X152362678Y-99820000D01*
X152400000Y-99823676D01*
X152437322Y-99820000D01*
X152437333Y-99820000D01*
X152548986Y-99809003D01*
X152692247Y-99765546D01*
X152824276Y-99694974D01*
X152940001Y-99600001D01*
X152963804Y-99570997D01*
X155109803Y-97424999D01*
X156089491Y-97424999D01*
X156045000Y-97648665D01*
X156045000Y-97931335D01*
X156100147Y-98208574D01*
X156208320Y-98469727D01*
X156365363Y-98704759D01*
X156565241Y-98904637D01*
X156720000Y-99008044D01*
X156720001Y-102701928D01*
X156680000Y-102701928D01*
X156555518Y-102714188D01*
X156435820Y-102750498D01*
X156325506Y-102809463D01*
X156228815Y-102888815D01*
X156149463Y-102985506D01*
X156090498Y-103095820D01*
X156054188Y-103215518D01*
X156041928Y-103340000D01*
X156041928Y-103347215D01*
X155972702Y-103326903D01*
X155159605Y-104140000D01*
X155972702Y-104953097D01*
X156041928Y-104932785D01*
X156041928Y-104940000D01*
X156054188Y-105064482D01*
X156090498Y-105184180D01*
X156149463Y-105294494D01*
X156228815Y-105391185D01*
X156325506Y-105470537D01*
X156435820Y-105529502D01*
X156555518Y-105565812D01*
X156680000Y-105578072D01*
X158280000Y-105578072D01*
X158404482Y-105565812D01*
X158524180Y-105529502D01*
X158634494Y-105470537D01*
X158731185Y-105391185D01*
X158810537Y-105294494D01*
X158869502Y-105184180D01*
X158905812Y-105064482D01*
X158918072Y-104940000D01*
X158918072Y-103340000D01*
X158905812Y-103215518D01*
X158869502Y-103095820D01*
X158810537Y-102985506D01*
X158731185Y-102888815D01*
X158634494Y-102809463D01*
X158524180Y-102750498D01*
X158404482Y-102714188D01*
X158280000Y-102701928D01*
X158240000Y-102701928D01*
X158240000Y-99008043D01*
X158394759Y-98904637D01*
X158594637Y-98704759D01*
X158750978Y-98470778D01*
X159260001Y-98979801D01*
X159260000Y-105095197D01*
X157165199Y-107190000D01*
X138699804Y-107190000D01*
X136642506Y-105132702D01*
X154166903Y-105132702D01*
X154238486Y-105376671D01*
X154493996Y-105497571D01*
X154768184Y-105566300D01*
X155050512Y-105580217D01*
X155330130Y-105538787D01*
X155596292Y-105443603D01*
X155721514Y-105376671D01*
X155793097Y-105132702D01*
X154980000Y-104319605D01*
X154166903Y-105132702D01*
X136642506Y-105132702D01*
X133369959Y-101860156D01*
X133466186Y-101781185D01*
X133545538Y-101684494D01*
X133604503Y-101574180D01*
X133640813Y-101454482D01*
X133653073Y-101330000D01*
X133653073Y-99330000D01*
X133640813Y-99205518D01*
X133604503Y-99085820D01*
X133545538Y-98975506D01*
X133466186Y-98878815D01*
X133369495Y-98799463D01*
X133259181Y-98740498D01*
X133139483Y-98704188D01*
X133015001Y-98691928D01*
X131775001Y-98691928D01*
X131775001Y-91446389D01*
X131884200Y-91401157D01*
X132184745Y-91200339D01*
X132440339Y-90944745D01*
X132641157Y-90644200D01*
X132779483Y-90310251D01*
X132850001Y-89955733D01*
X132850001Y-89594269D01*
X132779483Y-89239751D01*
X132641157Y-88905802D01*
X132440339Y-88605257D01*
X132184745Y-88349663D01*
X131884200Y-88148845D01*
X131550251Y-88010519D01*
X131195733Y-87940001D01*
X130834269Y-87940001D01*
X130479751Y-88010519D01*
X130145802Y-88148845D01*
X129845257Y-88349663D01*
X129589663Y-88605257D01*
X129388845Y-88905802D01*
X129250519Y-89239751D01*
X129180001Y-89594269D01*
X129180001Y-89955733D01*
X129250519Y-90310251D01*
X129388845Y-90644200D01*
X129589663Y-90944745D01*
X129845257Y-91200339D01*
X130145802Y-91401157D01*
X130255001Y-91446389D01*
X130255002Y-99292668D01*
X130251325Y-99330000D01*
X130255002Y-99367333D01*
X130265999Y-99478986D01*
X130267604Y-99484276D01*
X130309455Y-99622246D01*
X130376929Y-99748480D01*
X130376929Y-101330000D01*
X130389189Y-101454482D01*
X130425499Y-101574180D01*
X130484464Y-101684494D01*
X130563816Y-101781185D01*
X130660507Y-101860537D01*
X130770821Y-101919502D01*
X130890519Y-101955812D01*
X131015001Y-101968072D01*
X131360675Y-101968072D01*
X131380027Y-102004276D01*
X131433966Y-102070000D01*
X131475001Y-102120001D01*
X131503999Y-102143799D01*
X137821206Y-108461008D01*
X137845000Y-108490001D01*
X137873993Y-108513795D01*
X137873997Y-108513799D01*
X137930294Y-108560000D01*
X128930000Y-108560000D01*
X128930000Y-79400000D01*
X168250001Y-79400000D01*
X168250001Y-85440295D01*
G36*
X167513000Y-107823000D02*
G01*
X162638490Y-107823000D01*
X161495490Y-105537000D01*
X167513000Y-105537000D01*
X167513000Y-107823000D01*
G37*
X167513000Y-107823000D02*
X162638490Y-107823000D01*
X161495490Y-105537000D01*
X167513000Y-105537000D01*
X167513000Y-107823000D01*
M02*
