M48
; DRILL file {KiCad 5.1.5+dfsg1-2build2} date Wed Jul 21 17:57:03 2021
; FORMAT={-:-/ absolute / inch / decimal}
; #@! TF.CreationDate,2021-07-21T17:57:03+05:30
; #@! TF.GenerationSoftware,Kicad,Pcbnew,5.1.5+dfsg1-2build2
; #@! TF.FileFunction,Plated,1,2,PTH
FMAT,2
INCH
T1C0.0276
T2C0.0315
T3C0.0354
T4C0.0394
T5C0.0472
T6C0.0591
%
G90
G05
T1
X6.3451Y-3.6136
X6.4451Y-3.5136
X6.4451Y-3.7136
T2
X5.9Y-3.55
X5.9Y-3.65
X5.9Y-3.75
X5.9Y-3.85
X6.2Y-3.55
X6.2Y-3.65
X6.2Y-3.75
X6.2Y-3.85
X6.1016Y-4.1
X6.2Y-4.1
X5.65Y-4.05
X5.8469Y-4.05
T3
X6.4Y-4.0
X6.5Y-4.0
T4
X5.1974Y-3.95
X5.4967Y-3.95
T5
X5.7581Y-3.3317
X5.1581Y-3.5344
X5.7581Y-3.5344
X5.95Y-3.3317
X6.55Y-3.3317
X5.1581Y-3.3317
T6
X5.15Y-3.2
X6.55Y-4.2
T0
M30
