G04 #@! TF.GenerationSoftware,KiCad,Pcbnew,5.1.5+dfsg1-2build2*
G04 #@! TF.CreationDate,2021-07-21T17:56:19+05:30*
G04 #@! TF.ProjectId,tank_full_indicator,74616e6b-5f66-4756-9c6c-5f696e646963,rev?*
G04 #@! TF.SameCoordinates,Original*
G04 #@! TF.FileFunction,Soldermask,Bot*
G04 #@! TF.FilePolarity,Negative*
%FSLAX46Y46*%
G04 Gerber Fmt 4.6, Leading zero omitted, Abs format (unit mm)*
G04 Created by KiCad (PCBNEW 5.1.5+dfsg1-2build2) date 2021-07-21 17:56:19*
%MOMM*%
%LPD*%
G04 APERTURE LIST*
%ADD10C,0.150000*%
G04 APERTURE END LIST*
D10*
G36*
X158331000Y-104991000D02*
G01*
X156629000Y-104991000D01*
X156629000Y-103289000D01*
X158331000Y-103289000D01*
X158331000Y-104991000D01*
G37*
G36*
X155228228Y-103321703D02*
G01*
X155383100Y-103385853D01*
X155522481Y-103478985D01*
X155641015Y-103597519D01*
X155734147Y-103736900D01*
X155798297Y-103891772D01*
X155831000Y-104056184D01*
X155831000Y-104223816D01*
X155798297Y-104388228D01*
X155734147Y-104543100D01*
X155641015Y-104682481D01*
X155522481Y-104801015D01*
X155383100Y-104894147D01*
X155228228Y-104958297D01*
X155063816Y-104991000D01*
X154896184Y-104991000D01*
X154731772Y-104958297D01*
X154576900Y-104894147D01*
X154437519Y-104801015D01*
X154318985Y-104682481D01*
X154225853Y-104543100D01*
X154161703Y-104388228D01*
X154129000Y-104223816D01*
X154129000Y-104056184D01*
X154161703Y-103891772D01*
X154225853Y-103736900D01*
X154318985Y-103597519D01*
X154437519Y-103478985D01*
X154576900Y-103385853D01*
X154731772Y-103321703D01*
X154896184Y-103289000D01*
X155063816Y-103289000D01*
X155228228Y-103321703D01*
G37*
G36*
X148758228Y-102051703D02*
G01*
X148913100Y-102115853D01*
X149052481Y-102208985D01*
X149171015Y-102327519D01*
X149264147Y-102466900D01*
X149328297Y-102621772D01*
X149361000Y-102786184D01*
X149361000Y-102953816D01*
X149328297Y-103118228D01*
X149264147Y-103273100D01*
X149171015Y-103412481D01*
X149052481Y-103531015D01*
X148913100Y-103624147D01*
X148758228Y-103688297D01*
X148593816Y-103721000D01*
X148426184Y-103721000D01*
X148261772Y-103688297D01*
X148106900Y-103624147D01*
X147967519Y-103531015D01*
X147848985Y-103412481D01*
X147755853Y-103273100D01*
X147691703Y-103118228D01*
X147659000Y-102953816D01*
X147659000Y-102786184D01*
X147691703Y-102621772D01*
X147755853Y-102466900D01*
X147848985Y-102327519D01*
X147967519Y-102208985D01*
X148106900Y-102115853D01*
X148261772Y-102051703D01*
X148426184Y-102019000D01*
X148593816Y-102019000D01*
X148758228Y-102051703D01*
G37*
G36*
X144361000Y-103721000D02*
G01*
X142659000Y-103721000D01*
X142659000Y-102019000D01*
X144361000Y-102019000D01*
X144361000Y-103721000D01*
G37*
G36*
X163511000Y-102551000D02*
G01*
X161609000Y-102551000D01*
X161609000Y-100649000D01*
X163511000Y-100649000D01*
X163511000Y-102551000D01*
G37*
G36*
X165377395Y-100685546D02*
G01*
X165550466Y-100757234D01*
X165550467Y-100757235D01*
X165706227Y-100861310D01*
X165838690Y-100993773D01*
X165891081Y-101072182D01*
X165942766Y-101149534D01*
X166014454Y-101322605D01*
X166051000Y-101506333D01*
X166051000Y-101693667D01*
X166014454Y-101877395D01*
X165942766Y-102050466D01*
X165942765Y-102050467D01*
X165838690Y-102206227D01*
X165706227Y-102338690D01*
X165627818Y-102391081D01*
X165550466Y-102442766D01*
X165377395Y-102514454D01*
X165193667Y-102551000D01*
X165006333Y-102551000D01*
X164822605Y-102514454D01*
X164649534Y-102442766D01*
X164572182Y-102391081D01*
X164493773Y-102338690D01*
X164361310Y-102206227D01*
X164257235Y-102050467D01*
X164257234Y-102050466D01*
X164185546Y-101877395D01*
X164149000Y-101693667D01*
X164149000Y-101506333D01*
X164185546Y-101322605D01*
X164257234Y-101149534D01*
X164308919Y-101072182D01*
X164361310Y-100993773D01*
X164493773Y-100861310D01*
X164649533Y-100757235D01*
X164649534Y-100757234D01*
X164822605Y-100685546D01*
X165006333Y-100649000D01*
X165193667Y-100649000D01*
X165377395Y-100685546D01*
G37*
G36*
X139921565Y-99319389D02*
G01*
X140112834Y-99398615D01*
X140112836Y-99398616D01*
X140284974Y-99513635D01*
X140431366Y-99660027D01*
X140546386Y-99832167D01*
X140625612Y-100023436D01*
X140666001Y-100226484D01*
X140666001Y-100433516D01*
X140625612Y-100636564D01*
X140546386Y-100827833D01*
X140546385Y-100827835D01*
X140431366Y-100999973D01*
X140284974Y-101146365D01*
X140112836Y-101261384D01*
X140112835Y-101261385D01*
X140112834Y-101261385D01*
X139921565Y-101340611D01*
X139718517Y-101381000D01*
X139511485Y-101381000D01*
X139308437Y-101340611D01*
X139117168Y-101261385D01*
X139117167Y-101261385D01*
X139117166Y-101261384D01*
X138945028Y-101146365D01*
X138798636Y-100999973D01*
X138683617Y-100827835D01*
X138683616Y-100827833D01*
X138604390Y-100636564D01*
X138564001Y-100433516D01*
X138564001Y-100226484D01*
X138604390Y-100023436D01*
X138683616Y-99832167D01*
X138798636Y-99660027D01*
X138945028Y-99513635D01*
X139117166Y-99398616D01*
X139117168Y-99398615D01*
X139308437Y-99319389D01*
X139511485Y-99279000D01*
X139718517Y-99279000D01*
X139921565Y-99319389D01*
G37*
G36*
X133066001Y-101381000D02*
G01*
X130964001Y-101381000D01*
X130964001Y-99279000D01*
X133066001Y-99279000D01*
X133066001Y-101381000D01*
G37*
G36*
X150108228Y-96971703D02*
G01*
X150263100Y-97035853D01*
X150402481Y-97128985D01*
X150521015Y-97247519D01*
X150614147Y-97386900D01*
X150678297Y-97541772D01*
X150711000Y-97706184D01*
X150711000Y-97873816D01*
X150678297Y-98038228D01*
X150614147Y-98193100D01*
X150521015Y-98332481D01*
X150402481Y-98451015D01*
X150263100Y-98544147D01*
X150108228Y-98608297D01*
X149943816Y-98641000D01*
X149776184Y-98641000D01*
X149611772Y-98608297D01*
X149456900Y-98544147D01*
X149317519Y-98451015D01*
X149198985Y-98332481D01*
X149105853Y-98193100D01*
X149041703Y-98038228D01*
X149009000Y-97873816D01*
X149009000Y-97706184D01*
X149041703Y-97541772D01*
X149105853Y-97386900D01*
X149198985Y-97247519D01*
X149317519Y-97128985D01*
X149456900Y-97035853D01*
X149611772Y-96971703D01*
X149776184Y-96939000D01*
X149943816Y-96939000D01*
X150108228Y-96971703D01*
G37*
G36*
X157728228Y-96971703D02*
G01*
X157883100Y-97035853D01*
X158022481Y-97128985D01*
X158141015Y-97247519D01*
X158234147Y-97386900D01*
X158298297Y-97541772D01*
X158331000Y-97706184D01*
X158331000Y-97873816D01*
X158298297Y-98038228D01*
X158234147Y-98193100D01*
X158141015Y-98332481D01*
X158022481Y-98451015D01*
X157883100Y-98544147D01*
X157728228Y-98608297D01*
X157563816Y-98641000D01*
X157396184Y-98641000D01*
X157231772Y-98608297D01*
X157076900Y-98544147D01*
X156937519Y-98451015D01*
X156818985Y-98332481D01*
X156725853Y-98193100D01*
X156661703Y-98038228D01*
X156629000Y-97873816D01*
X156629000Y-97706184D01*
X156661703Y-97541772D01*
X156725853Y-97386900D01*
X156818985Y-97247519D01*
X156937519Y-97128985D01*
X157076900Y-97035853D01*
X157231772Y-96971703D01*
X157396184Y-96939000D01*
X157563816Y-96939000D01*
X157728228Y-96971703D01*
G37*
G36*
X150108228Y-94431703D02*
G01*
X150263100Y-94495853D01*
X150402481Y-94588985D01*
X150521015Y-94707519D01*
X150614147Y-94846900D01*
X150678297Y-95001772D01*
X150711000Y-95166184D01*
X150711000Y-95333816D01*
X150678297Y-95498228D01*
X150614147Y-95653100D01*
X150521015Y-95792481D01*
X150402481Y-95911015D01*
X150263100Y-96004147D01*
X150108228Y-96068297D01*
X149943816Y-96101000D01*
X149776184Y-96101000D01*
X149611772Y-96068297D01*
X149456900Y-96004147D01*
X149317519Y-95911015D01*
X149198985Y-95792481D01*
X149105853Y-95653100D01*
X149041703Y-95498228D01*
X149009000Y-95333816D01*
X149009000Y-95166184D01*
X149041703Y-95001772D01*
X149105853Y-94846900D01*
X149198985Y-94707519D01*
X149317519Y-94588985D01*
X149456900Y-94495853D01*
X149611772Y-94431703D01*
X149776184Y-94399000D01*
X149943816Y-94399000D01*
X150108228Y-94431703D01*
G37*
G36*
X157728228Y-94431703D02*
G01*
X157883100Y-94495853D01*
X158022481Y-94588985D01*
X158141015Y-94707519D01*
X158234147Y-94846900D01*
X158298297Y-95001772D01*
X158331000Y-95166184D01*
X158331000Y-95333816D01*
X158298297Y-95498228D01*
X158234147Y-95653100D01*
X158141015Y-95792481D01*
X158022481Y-95911015D01*
X157883100Y-96004147D01*
X157728228Y-96068297D01*
X157563816Y-96101000D01*
X157396184Y-96101000D01*
X157231772Y-96068297D01*
X157076900Y-96004147D01*
X156937519Y-95911015D01*
X156818985Y-95792481D01*
X156725853Y-95653100D01*
X156661703Y-95498228D01*
X156629000Y-95333816D01*
X156629000Y-95166184D01*
X156661703Y-95001772D01*
X156725853Y-94846900D01*
X156818985Y-94707519D01*
X156937519Y-94588985D01*
X157076900Y-94495853D01*
X157231772Y-94431703D01*
X157396184Y-94399000D01*
X157563816Y-94399000D01*
X157728228Y-94431703D01*
G37*
G36*
X163975105Y-93434586D02*
G01*
X164143627Y-93504390D01*
X164295292Y-93605729D01*
X164424273Y-93734710D01*
X164525612Y-93886375D01*
X164595416Y-94054897D01*
X164631001Y-94233798D01*
X164631001Y-94416204D01*
X164595416Y-94595105D01*
X164525612Y-94763627D01*
X164424273Y-94915292D01*
X164295292Y-95044273D01*
X164143627Y-95145612D01*
X163975105Y-95215416D01*
X163796204Y-95251001D01*
X163613798Y-95251001D01*
X163434897Y-95215416D01*
X163266375Y-95145612D01*
X163114710Y-95044273D01*
X162985729Y-94915292D01*
X162884390Y-94763627D01*
X162814586Y-94595105D01*
X162779001Y-94416204D01*
X162779001Y-94233798D01*
X162814586Y-94054897D01*
X162884390Y-93886375D01*
X162985729Y-93734710D01*
X163114710Y-93605729D01*
X163266375Y-93504390D01*
X163434897Y-93434586D01*
X163613798Y-93399001D01*
X163796204Y-93399001D01*
X163975105Y-93434586D01*
G37*
G36*
X157728228Y-91891703D02*
G01*
X157883100Y-91955853D01*
X158022481Y-92048985D01*
X158141015Y-92167519D01*
X158234147Y-92306900D01*
X158298297Y-92461772D01*
X158331000Y-92626184D01*
X158331000Y-92793816D01*
X158298297Y-92958228D01*
X158234147Y-93113100D01*
X158141015Y-93252481D01*
X158022481Y-93371015D01*
X157883100Y-93464147D01*
X157728228Y-93528297D01*
X157563816Y-93561000D01*
X157396184Y-93561000D01*
X157231772Y-93528297D01*
X157076900Y-93464147D01*
X156937519Y-93371015D01*
X156818985Y-93252481D01*
X156725853Y-93113100D01*
X156661703Y-92958228D01*
X156629000Y-92793816D01*
X156629000Y-92626184D01*
X156661703Y-92461772D01*
X156725853Y-92306900D01*
X156818985Y-92167519D01*
X156937519Y-92048985D01*
X157076900Y-91955853D01*
X157231772Y-91891703D01*
X157396184Y-91859000D01*
X157563816Y-91859000D01*
X157728228Y-91891703D01*
G37*
G36*
X150108228Y-91891703D02*
G01*
X150263100Y-91955853D01*
X150402481Y-92048985D01*
X150521015Y-92167519D01*
X150614147Y-92306900D01*
X150678297Y-92461772D01*
X150711000Y-92626184D01*
X150711000Y-92793816D01*
X150678297Y-92958228D01*
X150614147Y-93113100D01*
X150521015Y-93252481D01*
X150402481Y-93371015D01*
X150263100Y-93464147D01*
X150108228Y-93528297D01*
X149943816Y-93561000D01*
X149776184Y-93561000D01*
X149611772Y-93528297D01*
X149456900Y-93464147D01*
X149317519Y-93371015D01*
X149198985Y-93252481D01*
X149105853Y-93113100D01*
X149041703Y-92958228D01*
X149009000Y-92793816D01*
X149009000Y-92626184D01*
X149041703Y-92461772D01*
X149105853Y-92306900D01*
X149198985Y-92167519D01*
X149317519Y-92048985D01*
X149456900Y-91955853D01*
X149611772Y-91891703D01*
X149776184Y-91859000D01*
X149943816Y-91859000D01*
X150108228Y-91891703D01*
G37*
G36*
X161435105Y-90894586D02*
G01*
X161603627Y-90964390D01*
X161755292Y-91065729D01*
X161884273Y-91194710D01*
X161985612Y-91346375D01*
X162055416Y-91514897D01*
X162091001Y-91693798D01*
X162091001Y-91876204D01*
X162055416Y-92055105D01*
X161985612Y-92223627D01*
X161884273Y-92375292D01*
X161755292Y-92504273D01*
X161603627Y-92605612D01*
X161435105Y-92675416D01*
X161256204Y-92711001D01*
X161073798Y-92711001D01*
X160894897Y-92675416D01*
X160726375Y-92605612D01*
X160574710Y-92504273D01*
X160445729Y-92375292D01*
X160344390Y-92223627D01*
X160274586Y-92055105D01*
X160239001Y-91876204D01*
X160239001Y-91693798D01*
X160274586Y-91514897D01*
X160344390Y-91346375D01*
X160445729Y-91194710D01*
X160574710Y-91065729D01*
X160726375Y-90964390D01*
X160894897Y-90894586D01*
X161073798Y-90859001D01*
X161256204Y-90859001D01*
X161435105Y-90894586D01*
G37*
G36*
X131379904Y-88572076D02*
G01*
X131579401Y-88654710D01*
X131607572Y-88666379D01*
X131812467Y-88803286D01*
X131986716Y-88977535D01*
X132123623Y-89182430D01*
X132217926Y-89410098D01*
X132266001Y-89651788D01*
X132266001Y-89898214D01*
X132217926Y-90139904D01*
X132123623Y-90367572D01*
X131986716Y-90572467D01*
X131812467Y-90746716D01*
X131607572Y-90883623D01*
X131607571Y-90883624D01*
X131607570Y-90883624D01*
X131379904Y-90977926D01*
X131138215Y-91026001D01*
X130891787Y-91026001D01*
X130650098Y-90977926D01*
X130422432Y-90883624D01*
X130422431Y-90883624D01*
X130422430Y-90883623D01*
X130217535Y-90746716D01*
X130043286Y-90572467D01*
X129906379Y-90367572D01*
X129812076Y-90139904D01*
X129764001Y-89898214D01*
X129764001Y-89651788D01*
X129812076Y-89410098D01*
X129906379Y-89182430D01*
X130043286Y-88977535D01*
X130217535Y-88803286D01*
X130422430Y-88666379D01*
X130450602Y-88654710D01*
X130650098Y-88572076D01*
X130891787Y-88524001D01*
X131138215Y-88524001D01*
X131379904Y-88572076D01*
G37*
G36*
X146619904Y-88572076D02*
G01*
X146819401Y-88654710D01*
X146847572Y-88666379D01*
X147052467Y-88803286D01*
X147226716Y-88977535D01*
X147363623Y-89182430D01*
X147457926Y-89410098D01*
X147506001Y-89651788D01*
X147506001Y-89898214D01*
X147457926Y-90139904D01*
X147363623Y-90367572D01*
X147226716Y-90572467D01*
X147052467Y-90746716D01*
X146847572Y-90883623D01*
X146847571Y-90883624D01*
X146847570Y-90883624D01*
X146619904Y-90977926D01*
X146378215Y-91026001D01*
X146131787Y-91026001D01*
X145890098Y-90977926D01*
X145662432Y-90883624D01*
X145662431Y-90883624D01*
X145662430Y-90883623D01*
X145457535Y-90746716D01*
X145283286Y-90572467D01*
X145146379Y-90367572D01*
X145052076Y-90139904D01*
X145004001Y-89898214D01*
X145004001Y-89651788D01*
X145052076Y-89410098D01*
X145146379Y-89182430D01*
X145283286Y-88977535D01*
X145457535Y-88803286D01*
X145662430Y-88666379D01*
X145690602Y-88654710D01*
X145890098Y-88572076D01*
X146131787Y-88524001D01*
X146378215Y-88524001D01*
X146619904Y-88572076D01*
G37*
G36*
X157728228Y-89351703D02*
G01*
X157883100Y-89415853D01*
X158022481Y-89508985D01*
X158141015Y-89627519D01*
X158234147Y-89766900D01*
X158298297Y-89921772D01*
X158331000Y-90086184D01*
X158331000Y-90253816D01*
X158298297Y-90418228D01*
X158234147Y-90573100D01*
X158141015Y-90712481D01*
X158022481Y-90831015D01*
X157883100Y-90924147D01*
X157728228Y-90988297D01*
X157563816Y-91021000D01*
X157396184Y-91021000D01*
X157231772Y-90988297D01*
X157076900Y-90924147D01*
X156937519Y-90831015D01*
X156818985Y-90712481D01*
X156725853Y-90573100D01*
X156661703Y-90418228D01*
X156629000Y-90253816D01*
X156629000Y-90086184D01*
X156661703Y-89921772D01*
X156725853Y-89766900D01*
X156818985Y-89627519D01*
X156937519Y-89508985D01*
X157076900Y-89415853D01*
X157231772Y-89351703D01*
X157396184Y-89319000D01*
X157563816Y-89319000D01*
X157728228Y-89351703D01*
G37*
G36*
X150711000Y-91021000D02*
G01*
X149009000Y-91021000D01*
X149009000Y-89319000D01*
X150711000Y-89319000D01*
X150711000Y-91021000D01*
G37*
G36*
X163975105Y-88354586D02*
G01*
X164143627Y-88424390D01*
X164295292Y-88525729D01*
X164424273Y-88654710D01*
X164525612Y-88806375D01*
X164595416Y-88974897D01*
X164631001Y-89153798D01*
X164631001Y-89336204D01*
X164595416Y-89515105D01*
X164525612Y-89683627D01*
X164424273Y-89835292D01*
X164295292Y-89964273D01*
X164143627Y-90065612D01*
X163975105Y-90135416D01*
X163796204Y-90171001D01*
X163613798Y-90171001D01*
X163434897Y-90135416D01*
X163266375Y-90065612D01*
X163114710Y-89964273D01*
X162985729Y-89835292D01*
X162884390Y-89683627D01*
X162814586Y-89515105D01*
X162779001Y-89336204D01*
X162779001Y-89153798D01*
X162814586Y-88974897D01*
X162884390Y-88806375D01*
X162985729Y-88654710D01*
X163114710Y-88525729D01*
X163266375Y-88424390D01*
X163434897Y-88354586D01*
X163613798Y-88319001D01*
X163796204Y-88319001D01*
X163975105Y-88354586D01*
G37*
G36*
X131379904Y-83422076D02*
G01*
X131607572Y-83516379D01*
X131812467Y-83653286D01*
X131986716Y-83827535D01*
X132123623Y-84032430D01*
X132217926Y-84260098D01*
X132266001Y-84501788D01*
X132266001Y-84748214D01*
X132217926Y-84989904D01*
X132123623Y-85217572D01*
X131986716Y-85422467D01*
X131812467Y-85596716D01*
X131607572Y-85733623D01*
X131607571Y-85733624D01*
X131607570Y-85733624D01*
X131379904Y-85827926D01*
X131138215Y-85876001D01*
X130891787Y-85876001D01*
X130650098Y-85827926D01*
X130422432Y-85733624D01*
X130422431Y-85733624D01*
X130422430Y-85733623D01*
X130217535Y-85596716D01*
X130043286Y-85422467D01*
X129906379Y-85217572D01*
X129812076Y-84989904D01*
X129764001Y-84748214D01*
X129764001Y-84501788D01*
X129812076Y-84260098D01*
X129906379Y-84032430D01*
X130043286Y-83827535D01*
X130217535Y-83653286D01*
X130422430Y-83516379D01*
X130650098Y-83422076D01*
X130891787Y-83374001D01*
X131138215Y-83374001D01*
X131379904Y-83422076D01*
G37*
G36*
X151494903Y-83422076D02*
G01*
X151722571Y-83516379D01*
X151927466Y-83653286D01*
X152101715Y-83827535D01*
X152238622Y-84032430D01*
X152332925Y-84260098D01*
X152381000Y-84501788D01*
X152381000Y-84748214D01*
X152332925Y-84989904D01*
X152238622Y-85217572D01*
X152101715Y-85422467D01*
X151927466Y-85596716D01*
X151722571Y-85733623D01*
X151722570Y-85733624D01*
X151722569Y-85733624D01*
X151494903Y-85827926D01*
X151253214Y-85876001D01*
X151006786Y-85876001D01*
X150765097Y-85827926D01*
X150537431Y-85733624D01*
X150537430Y-85733624D01*
X150537429Y-85733623D01*
X150332534Y-85596716D01*
X150158285Y-85422467D01*
X150021378Y-85217572D01*
X149927075Y-84989904D01*
X149879000Y-84748214D01*
X149879000Y-84501788D01*
X149927075Y-84260098D01*
X150021378Y-84032430D01*
X150158285Y-83827535D01*
X150332534Y-83653286D01*
X150537429Y-83516379D01*
X150765097Y-83422076D01*
X151006786Y-83374001D01*
X151253214Y-83374001D01*
X151494903Y-83422076D01*
G37*
G36*
X166734903Y-83422076D02*
G01*
X166962571Y-83516379D01*
X167167466Y-83653286D01*
X167341715Y-83827535D01*
X167478622Y-84032430D01*
X167572925Y-84260098D01*
X167621000Y-84501788D01*
X167621000Y-84748214D01*
X167572925Y-84989904D01*
X167478622Y-85217572D01*
X167341715Y-85422467D01*
X167167466Y-85596716D01*
X166962571Y-85733623D01*
X166962570Y-85733624D01*
X166962569Y-85733624D01*
X166734903Y-85827926D01*
X166493214Y-85876001D01*
X166246786Y-85876001D01*
X166005097Y-85827926D01*
X165777431Y-85733624D01*
X165777430Y-85733624D01*
X165777429Y-85733623D01*
X165572534Y-85596716D01*
X165398285Y-85422467D01*
X165261378Y-85217572D01*
X165167075Y-84989904D01*
X165119000Y-84748214D01*
X165119000Y-84501788D01*
X165167075Y-84260098D01*
X165261378Y-84032430D01*
X165398285Y-83827535D01*
X165572534Y-83653286D01*
X165777429Y-83516379D01*
X166005097Y-83422076D01*
X166246786Y-83374001D01*
X166493214Y-83374001D01*
X166734903Y-83422076D01*
G37*
G36*
X146619904Y-83422076D02*
G01*
X146847572Y-83516379D01*
X147052467Y-83653286D01*
X147226716Y-83827535D01*
X147363623Y-84032430D01*
X147457926Y-84260098D01*
X147506001Y-84501788D01*
X147506001Y-84748214D01*
X147457926Y-84989904D01*
X147363623Y-85217572D01*
X147226716Y-85422467D01*
X147052467Y-85596716D01*
X146847572Y-85733623D01*
X146847571Y-85733624D01*
X146847570Y-85733624D01*
X146619904Y-85827926D01*
X146378215Y-85876001D01*
X146131787Y-85876001D01*
X145890098Y-85827926D01*
X145662432Y-85733624D01*
X145662431Y-85733624D01*
X145662430Y-85733623D01*
X145457535Y-85596716D01*
X145283286Y-85422467D01*
X145146379Y-85217572D01*
X145052076Y-84989904D01*
X145004001Y-84748214D01*
X145004001Y-84501788D01*
X145052076Y-84260098D01*
X145146379Y-84032430D01*
X145283286Y-83827535D01*
X145457535Y-83653286D01*
X145662430Y-83516379D01*
X145890098Y-83422076D01*
X146131787Y-83374001D01*
X146378215Y-83374001D01*
X146619904Y-83422076D01*
G37*
M02*
