G04 #@! TF.GenerationSoftware,KiCad,Pcbnew,5.1.5+dfsg1-2build2*
G04 #@! TF.CreationDate,2021-07-21T17:56:19+05:30*
G04 #@! TF.ProjectId,tank_full_indicator,74616e6b-5f66-4756-9c6c-5f696e646963,rev?*
G04 #@! TF.SameCoordinates,Original*
G04 #@! TF.FileFunction,Legend,Top*
G04 #@! TF.FilePolarity,Positive*
%FSLAX46Y46*%
G04 Gerber Fmt 4.6, Leading zero omitted, Abs format (unit mm)*
G04 Created by KiCad (PCBNEW 5.1.5+dfsg1-2build2) date 2021-07-21 17:56:19*
%MOMM*%
%LPD*%
G04 APERTURE LIST*
%ADD10C,0.120000*%
%ADD11C,0.150000*%
G04 APERTURE END LIST*
D10*
X165502335Y-100521392D02*
G75*
G03X162270000Y-100364484I-1672335J-1078608D01*
G01*
X165502335Y-102678608D02*
G75*
G02X162270000Y-102835516I-1672335J1078608D01*
G01*
X164871130Y-100520163D02*
G75*
G03X162789039Y-100520000I-1041130J-1079837D01*
G01*
X164871130Y-102679837D02*
G75*
G02X162789039Y-102680000I-1041130J1079837D01*
G01*
X162270000Y-100364000D02*
X162270000Y-100520000D01*
X162270000Y-102680000D02*
X162270000Y-102836000D01*
X154670000Y-88840000D02*
G75*
G02X152670000Y-88840000I-1000000J0D01*
G01*
X152670000Y-88840000D02*
X151020000Y-88840000D01*
X151020000Y-88840000D02*
X151020000Y-99120000D01*
X151020000Y-99120000D02*
X156320000Y-99120000D01*
X156320000Y-99120000D02*
X156320000Y-88840000D01*
X156320000Y-88840000D02*
X154670000Y-88840000D01*
X141915001Y-100330000D02*
G75*
G03X141915001Y-100330000I-6100000J0D01*
G01*
X159350000Y-104140000D02*
G75*
G03X159350000Y-104140000I-3120000J0D01*
G01*
X159569749Y-105895000D02*
X158969749Y-105895000D01*
X159269749Y-106195000D02*
X159269749Y-105595000D01*
X148944417Y-101810000D02*
G75*
G03X143075584Y-101810000I-2934417J-1060000D01*
G01*
X148944417Y-103930000D02*
G75*
G02X143075584Y-103930000I-2934417J1060000D01*
G01*
X142670251Y-101115000D02*
X143270251Y-101115000D01*
X142970251Y-100815000D02*
X142970251Y-101415000D01*
X133565001Y-82705001D02*
X133565001Y-86545001D01*
X133565001Y-86545001D02*
X143705001Y-86545001D01*
X143705001Y-86545001D02*
X143705001Y-82705001D01*
X143705001Y-82705001D02*
X133565001Y-82705001D01*
X132455001Y-84625001D02*
X133565001Y-84625001D01*
X144815001Y-84625001D02*
X143705001Y-84625001D01*
X144815001Y-89775001D02*
X143705001Y-89775001D01*
X132455001Y-89775001D02*
X133565001Y-89775001D01*
X143705001Y-87855001D02*
X133565001Y-87855001D01*
X143705001Y-91695001D02*
X143705001Y-87855001D01*
X133565001Y-91695001D02*
X143705001Y-91695001D01*
X133565001Y-87855001D02*
X133565001Y-91695001D01*
X153680000Y-82705001D02*
X153680000Y-86545001D01*
X153680000Y-86545001D02*
X163820000Y-86545001D01*
X163820000Y-86545001D02*
X163820000Y-82705001D01*
X163820000Y-82705001D02*
X153680000Y-82705001D01*
X152570000Y-84625001D02*
X153680000Y-84625001D01*
X164930000Y-84625001D02*
X163820000Y-84625001D01*
X167635001Y-91785001D02*
G75*
G03X167635001Y-91785001I-3930000J0D01*
G01*
D11*
X163091904Y-99092380D02*
X163091904Y-98092380D01*
X163330000Y-98092380D01*
X163472857Y-98140000D01*
X163568095Y-98235238D01*
X163615714Y-98330476D01*
X163663333Y-98520952D01*
X163663333Y-98663809D01*
X163615714Y-98854285D01*
X163568095Y-98949523D01*
X163472857Y-99044761D01*
X163330000Y-99092380D01*
X163091904Y-99092380D01*
X164615714Y-99092380D02*
X164044285Y-99092380D01*
X164330000Y-99092380D02*
X164330000Y-98092380D01*
X164234761Y-98235238D01*
X164139523Y-98330476D01*
X164044285Y-98378095D01*
X152908095Y-87292380D02*
X152908095Y-88101904D01*
X152955714Y-88197142D01*
X153003333Y-88244761D01*
X153098571Y-88292380D01*
X153289047Y-88292380D01*
X153384285Y-88244761D01*
X153431904Y-88197142D01*
X153479523Y-88101904D01*
X153479523Y-87292380D01*
X154479523Y-88292380D02*
X153908095Y-88292380D01*
X154193809Y-88292380D02*
X154193809Y-87292380D01*
X154098571Y-87435238D01*
X154003333Y-87530476D01*
X153908095Y-87578095D01*
X134934048Y-93058571D02*
X135076905Y-93106190D01*
X135124524Y-93153809D01*
X135172143Y-93249047D01*
X135172143Y-93391904D01*
X135124524Y-93487142D01*
X135076905Y-93534761D01*
X134981667Y-93582380D01*
X134600715Y-93582380D01*
X134600715Y-92582380D01*
X134934048Y-92582380D01*
X135029286Y-92630000D01*
X135076905Y-92677619D01*
X135124524Y-92772857D01*
X135124524Y-92868095D01*
X135076905Y-92963333D01*
X135029286Y-93010952D01*
X134934048Y-93058571D01*
X134600715Y-93058571D01*
X135505477Y-92582380D02*
X136172143Y-92582380D01*
X135505477Y-93582380D01*
X136172143Y-93582380D01*
X137076905Y-93582380D02*
X136505477Y-93582380D01*
X136791191Y-93582380D02*
X136791191Y-92582380D01*
X136695953Y-92725238D01*
X136600715Y-92820476D01*
X136505477Y-92868095D01*
X131624048Y-97861428D02*
X132385953Y-97861428D01*
X132005001Y-98242380D02*
X132005001Y-97480476D01*
X156063333Y-108747142D02*
X156015714Y-108794761D01*
X155872857Y-108842380D01*
X155777619Y-108842380D01*
X155634761Y-108794761D01*
X155539523Y-108699523D01*
X155491904Y-108604285D01*
X155444285Y-108413809D01*
X155444285Y-108270952D01*
X155491904Y-108080476D01*
X155539523Y-107985238D01*
X155634761Y-107890000D01*
X155777619Y-107842380D01*
X155872857Y-107842380D01*
X156015714Y-107890000D01*
X156063333Y-107937619D01*
X157015714Y-108842380D02*
X156444285Y-108842380D01*
X156730000Y-108842380D02*
X156730000Y-107842380D01*
X156634761Y-107985238D01*
X156539523Y-108080476D01*
X156444285Y-108128095D01*
X145843333Y-98977142D02*
X145795714Y-99024761D01*
X145652857Y-99072380D01*
X145557619Y-99072380D01*
X145414761Y-99024761D01*
X145319523Y-98929523D01*
X145271904Y-98834285D01*
X145224285Y-98643809D01*
X145224285Y-98500952D01*
X145271904Y-98310476D01*
X145319523Y-98215238D01*
X145414761Y-98120000D01*
X145557619Y-98072380D01*
X145652857Y-98072380D01*
X145795714Y-98120000D01*
X145843333Y-98167619D01*
X146224285Y-98167619D02*
X146271904Y-98120000D01*
X146367142Y-98072380D01*
X146605238Y-98072380D01*
X146700476Y-98120000D01*
X146748095Y-98167619D01*
X146795714Y-98262857D01*
X146795714Y-98358095D01*
X146748095Y-98500952D01*
X146176666Y-99072380D01*
X146795714Y-99072380D01*
X138468334Y-82157381D02*
X138135001Y-81681191D01*
X137896905Y-82157381D02*
X137896905Y-81157381D01*
X138277858Y-81157381D01*
X138373096Y-81205001D01*
X138420715Y-81252620D01*
X138468334Y-81347858D01*
X138468334Y-81490715D01*
X138420715Y-81585953D01*
X138373096Y-81633572D01*
X138277858Y-81681191D01*
X137896905Y-81681191D01*
X139420715Y-82157381D02*
X138849286Y-82157381D01*
X139135001Y-82157381D02*
X139135001Y-81157381D01*
X139039762Y-81300239D01*
X138944524Y-81395477D01*
X138849286Y-81443096D01*
X138468334Y-87307381D02*
X138135001Y-86831191D01*
X137896905Y-87307381D02*
X137896905Y-86307381D01*
X138277858Y-86307381D01*
X138373096Y-86355001D01*
X138420715Y-86402620D01*
X138468334Y-86497858D01*
X138468334Y-86640715D01*
X138420715Y-86735953D01*
X138373096Y-86783572D01*
X138277858Y-86831191D01*
X137896905Y-86831191D01*
X138849286Y-86402620D02*
X138896905Y-86355001D01*
X138992143Y-86307381D01*
X139230239Y-86307381D01*
X139325477Y-86355001D01*
X139373096Y-86402620D01*
X139420715Y-86497858D01*
X139420715Y-86593096D01*
X139373096Y-86735953D01*
X138801667Y-87307381D01*
X139420715Y-87307381D01*
X158583333Y-82157381D02*
X158250000Y-81681191D01*
X158011904Y-82157381D02*
X158011904Y-81157381D01*
X158392857Y-81157381D01*
X158488095Y-81205001D01*
X158535714Y-81252620D01*
X158583333Y-81347858D01*
X158583333Y-81490715D01*
X158535714Y-81585953D01*
X158488095Y-81633572D01*
X158392857Y-81681191D01*
X158011904Y-81681191D01*
X158916666Y-81157381D02*
X159535714Y-81157381D01*
X159202380Y-81538334D01*
X159345238Y-81538334D01*
X159440476Y-81585953D01*
X159488095Y-81633572D01*
X159535714Y-81728810D01*
X159535714Y-81966905D01*
X159488095Y-82062143D01*
X159440476Y-82109762D01*
X159345238Y-82157381D01*
X159059523Y-82157381D01*
X158964285Y-82109762D01*
X158916666Y-82062143D01*
X163109762Y-87177381D02*
X162776429Y-86701191D01*
X162538334Y-87177381D02*
X162538334Y-86177381D01*
X162919286Y-86177381D01*
X163014524Y-86225001D01*
X163062143Y-86272620D01*
X163109762Y-86367858D01*
X163109762Y-86510715D01*
X163062143Y-86605953D01*
X163014524Y-86653572D01*
X162919286Y-86701191D01*
X162538334Y-86701191D01*
X163395477Y-86177381D02*
X163728810Y-87177381D01*
X164062143Y-86177381D01*
X164919286Y-87177381D02*
X164347858Y-87177381D01*
X164633572Y-87177381D02*
X164633572Y-86177381D01*
X164538334Y-86320239D01*
X164443096Y-86415477D01*
X164347858Y-86463096D01*
M02*
